<mxfile host="app.diagrams.net" modified="2023-02-12T01:48:49.359Z" agent="5.0 (Windows NT 10.0; Win64; x64) AppleWebKit/537.36 (KHTML, like Gecko) Chrome/110.0.0.0 Safari/537.36" etag="QDBsT7skPz4pWWMFiykw" version="20.8.18" type="github">
  <diagram name="Page-1" id="VwtbdxvzcMwx3TZho54g">
    <mxGraphModel dx="1050" dy="594" grid="1" gridSize="10" guides="1" tooltips="1" connect="1" arrows="1" fold="1" page="1" pageScale="1" pageWidth="850" pageHeight="1100" math="0" shadow="0">
      <root>
        <mxCell id="0" />
        <mxCell id="1" parent="0" />
        <mxCell id="MsljBTPrdHte6thjRBzl-1" value="User" style="swimlane;horizontal=0;whiteSpace=wrap;html=1;" vertex="1" parent="1">
          <mxGeometry x="40" y="130" width="910" height="160" as="geometry" />
        </mxCell>
        <mxCell id="MsljBTPrdHte6thjRBzl-2" value="User press save change" style="shape=ellipse;html=1;fillColor=strokeColor;strokeWidth=2;verticalLabelPosition=bottom;verticalAlignment=top;perimeter=ellipsePerimeter;" vertex="1" parent="MsljBTPrdHte6thjRBzl-1">
          <mxGeometry x="180" y="20" width="40" height="40" as="geometry" />
        </mxCell>
        <mxCell id="MsljBTPrdHte6thjRBzl-3" value="" style="ellipse;html=1;shape=endState;fillColor=#000000;strokeColor=#ff0000;strokeWidth=2;fontFamily=Helvetica;fontSize=12;fontColor=default;" vertex="1" parent="MsljBTPrdHte6thjRBzl-1">
          <mxGeometry x="860" y="70" width="30" height="30" as="geometry" />
        </mxCell>
        <mxCell id="MsljBTPrdHte6thjRBzl-4" value="ProfileController" style="swimlane;horizontal=0;whiteSpace=wrap;html=1;" vertex="1" parent="1">
          <mxGeometry x="40" y="300" width="910" height="270" as="geometry" />
        </mxCell>
        <mxCell id="MsljBTPrdHte6thjRBzl-5" value="Display User Information" style="rounded=1;whiteSpace=wrap;html=1;strokeWidth=2;fontFamily=Helvetica;fontSize=12;" vertex="1" parent="MsljBTPrdHte6thjRBzl-4">
          <mxGeometry x="770" y="40" width="120" height="60" as="geometry" />
        </mxCell>
        <mxCell id="MsljBTPrdHte6thjRBzl-7" value="Check field" style="rounded=1;whiteSpace=wrap;html=1;strokeWidth=2;fontFamily=Helvetica;fontSize=12;" vertex="1" parent="MsljBTPrdHte6thjRBzl-4">
          <mxGeometry x="50" y="20" width="120" height="60" as="geometry" />
        </mxCell>
        <mxCell id="MsljBTPrdHte6thjRBzl-8" value="Send Request with new User Information" style="rounded=1;whiteSpace=wrap;html=1;strokeWidth=2;fontFamily=Helvetica;fontSize=12;" vertex="1" parent="MsljBTPrdHte6thjRBzl-4">
          <mxGeometry x="440" y="190" width="120" height="60" as="geometry" />
        </mxCell>
        <mxCell id="MsljBTPrdHte6thjRBzl-22" style="edgeStyle=orthogonalEdgeStyle;rounded=0;orthogonalLoop=1;jettySize=auto;html=1;dashed=1;exitX=1;exitY=0.5;exitDx=0;exitDy=0;" edge="1" parent="MsljBTPrdHte6thjRBzl-4" source="MsljBTPrdHte6thjRBzl-7" target="MsljBTPrdHte6thjRBzl-21">
          <mxGeometry relative="1" as="geometry">
            <mxPoint x="280" y="140" as="sourcePoint" />
          </mxGeometry>
        </mxCell>
        <mxCell id="MsljBTPrdHte6thjRBzl-24" style="edgeStyle=orthogonalEdgeStyle;rounded=0;orthogonalLoop=1;jettySize=auto;html=1;entryX=0;entryY=0.5;entryDx=0;entryDy=0;dashed=1;exitX=0.5;exitY=1;exitDx=0;exitDy=0;exitPerimeter=0;" edge="1" parent="MsljBTPrdHte6thjRBzl-4" source="MsljBTPrdHte6thjRBzl-21" target="MsljBTPrdHte6thjRBzl-8">
          <mxGeometry relative="1" as="geometry">
            <Array as="points">
              <mxPoint x="200" y="260" />
              <mxPoint x="320" y="260" />
              <mxPoint x="320" y="220" />
            </Array>
          </mxGeometry>
        </mxCell>
        <mxCell id="MsljBTPrdHte6thjRBzl-25" value="Yes" style="edgeLabel;html=1;align=center;verticalAlign=middle;resizable=0;points=[];" vertex="1" connectable="0" parent="MsljBTPrdHte6thjRBzl-24">
          <mxGeometry x="0.0133" y="2" relative="1" as="geometry">
            <mxPoint as="offset" />
          </mxGeometry>
        </mxCell>
        <mxCell id="MsljBTPrdHte6thjRBzl-26" style="edgeStyle=orthogonalEdgeStyle;rounded=0;orthogonalLoop=1;jettySize=auto;html=1;entryX=0;entryY=0.5;entryDx=0;entryDy=0;dashed=1;" edge="1" parent="MsljBTPrdHte6thjRBzl-4" source="MsljBTPrdHte6thjRBzl-21" target="MsljBTPrdHte6thjRBzl-5">
          <mxGeometry relative="1" as="geometry" />
        </mxCell>
        <mxCell id="MsljBTPrdHte6thjRBzl-27" value="No" style="edgeLabel;html=1;align=center;verticalAlign=middle;resizable=0;points=[];" vertex="1" connectable="0" parent="MsljBTPrdHte6thjRBzl-26">
          <mxGeometry x="-0.5305" y="4" relative="1" as="geometry">
            <mxPoint as="offset" />
          </mxGeometry>
        </mxCell>
        <mxCell id="MsljBTPrdHte6thjRBzl-21" value="has any field got changed?" style="strokeWidth=2;html=1;shape=mxgraph.flowchart.decision;whiteSpace=wrap;" vertex="1" parent="MsljBTPrdHte6thjRBzl-4">
          <mxGeometry x="150" y="110" width="100" height="100" as="geometry" />
        </mxCell>
        <mxCell id="MsljBTPrdHte6thjRBzl-28" value="note: We treat user deleted some/all field as no field change" style="text;html=1;strokeColor=none;fillColor=none;align=center;verticalAlign=middle;whiteSpace=wrap;rounded=0;fontStyle=2" vertex="1" parent="MsljBTPrdHte6thjRBzl-4">
          <mxGeometry x="250" y="80" width="210" height="30" as="geometry" />
        </mxCell>
        <mxCell id="MsljBTPrdHte6thjRBzl-9" value="UserController" style="swimlane;horizontal=0;whiteSpace=wrap;html=1;" vertex="1" parent="1">
          <mxGeometry x="40" y="580" width="910" height="160" as="geometry" />
        </mxCell>
        <mxCell id="MsljBTPrdHte6thjRBzl-10" value="Send Back User Information" style="rounded=1;whiteSpace=wrap;html=1;strokeWidth=2;fontFamily=Helvetica;fontSize=12;" vertex="1" parent="MsljBTPrdHte6thjRBzl-9">
          <mxGeometry x="590" y="50" width="120" height="60" as="geometry" />
        </mxCell>
        <mxCell id="MsljBTPrdHte6thjRBzl-11" style="edgeStyle=orthogonalEdgeStyle;rounded=0;orthogonalLoop=1;jettySize=auto;html=1;entryX=0;entryY=0.25;entryDx=0;entryDy=0;dashed=1;" edge="1" parent="MsljBTPrdHte6thjRBzl-9" source="MsljBTPrdHte6thjRBzl-12" target="MsljBTPrdHte6thjRBzl-10">
          <mxGeometry relative="1" as="geometry" />
        </mxCell>
        <mxCell id="MsljBTPrdHte6thjRBzl-12" value="Update User information in DB" style="rounded=1;whiteSpace=wrap;html=1;strokeWidth=2;fontFamily=Helvetica;fontSize=12;" vertex="1" parent="MsljBTPrdHte6thjRBzl-9">
          <mxGeometry x="140" y="60" width="120" height="60" as="geometry" />
        </mxCell>
        <mxCell id="MsljBTPrdHte6thjRBzl-13" style="edgeStyle=orthogonalEdgeStyle;rounded=0;orthogonalLoop=1;jettySize=auto;html=1;entryX=0.5;entryY=1;entryDx=0;entryDy=0;dashed=1;strokeWidth=1;fontFamily=Helvetica;fontSize=12;fontColor=default;" edge="1" parent="1" source="MsljBTPrdHte6thjRBzl-5" target="MsljBTPrdHte6thjRBzl-3">
          <mxGeometry relative="1" as="geometry" />
        </mxCell>
        <mxCell id="MsljBTPrdHte6thjRBzl-14" style="edgeStyle=orthogonalEdgeStyle;rounded=0;orthogonalLoop=1;jettySize=auto;html=1;entryX=0.5;entryY=0;entryDx=0;entryDy=0;dashed=1;strokeWidth=1;fontFamily=Helvetica;fontSize=12;fontColor=default;" edge="1" parent="1" source="MsljBTPrdHte6thjRBzl-2" target="MsljBTPrdHte6thjRBzl-7">
          <mxGeometry relative="1" as="geometry" />
        </mxCell>
        <mxCell id="MsljBTPrdHte6thjRBzl-15" value="Change user Information" style="text;html=1;strokeColor=none;fillColor=none;align=center;verticalAlign=middle;whiteSpace=wrap;rounded=0;fontSize=19;" vertex="1" parent="1">
          <mxGeometry x="400" y="70" width="290" height="30" as="geometry" />
        </mxCell>
        <mxCell id="MsljBTPrdHte6thjRBzl-17" style="edgeStyle=orthogonalEdgeStyle;rounded=0;orthogonalLoop=1;jettySize=auto;html=1;entryX=0.36;entryY=1.053;entryDx=0;entryDy=0;entryPerimeter=0;dashed=1;" edge="1" parent="1" source="MsljBTPrdHte6thjRBzl-10" target="MsljBTPrdHte6thjRBzl-5">
          <mxGeometry relative="1" as="geometry" />
        </mxCell>
        <mxCell id="MsljBTPrdHte6thjRBzl-18" style="edgeStyle=orthogonalEdgeStyle;rounded=0;orthogonalLoop=1;jettySize=auto;html=1;dashed=1;" edge="1" parent="1" source="MsljBTPrdHte6thjRBzl-8" target="MsljBTPrdHte6thjRBzl-12">
          <mxGeometry relative="1" as="geometry">
            <Array as="points">
              <mxPoint x="540" y="600" />
              <mxPoint x="240" y="600" />
            </Array>
          </mxGeometry>
        </mxCell>
      </root>
    </mxGraphModel>
  </diagram>
</mxfile>
